<svg id="Layer_2" enable-background="new 0 0 60 60" height="512" viewBox="0 0 60 60" width="512" xmlns="http://www.w3.org/2000/svg"><g><g><path d="m25 27h-16c-1.1045694 0-2-.8954296-2-2v-16c0-1.1045694.8954306-2 2-2h16c1.1045704 0 2 .8954306 2 2v16c0 1.1045704-.8954296 2-2 2z" fill="#f4d2b1"/><path d="m25 28h-16c-1.6542969 0-3-1.3457031-3-3v-16c0-1.6542969 1.3457031-3 3-3h16c1.6542969 0 3 1.3457031 3 3v16c0 1.6542969-1.3457031 3-3 3zm-16-20c-.5512695 0-1 .4487305-1 1v16c0 .5512695.4487305 1 1 1h16c.5512695 0 1-.4487305 1-1v-16c0-.5512695-.4487305-1-1-1z"/></g><g><path d="m51 27h-16c-1.1045685 0-2-.8954296-2-2v-16c0-1.1045694.8954315-2 2-2h16c1.1045685 0 2 .8954306 2 2v16c0 1.1045704-.8954315 2-2 2z" fill="#52c392"/><path d="m51 28h-16c-1.6542969 0-3-1.3457031-3-3v-16c0-1.6542969 1.3457031-3 3-3h16c1.6542969 0 3 1.3457031 3 3v16c0 1.6542969-1.3457031 3-3 3zm-16-20c-.5512695 0-1 .4487305-1 1v16c0 .5512695.4487305 1 1 1h16c.5512695 0 1-.4487305 1-1v-16c0-.5512695-.4487305-1-1-1z"/></g><g><path d="m25 53h-16c-1.1045694 0-2-.8954315-2-2v-16c0-1.1045685.8954306-2 2-2h16c1.1045704 0 2 .8954315 2 2v16c0 1.1045685-.8954296 2-2 2z" fill="#2ba4f5"/><path d="m25 54h-16c-1.6542969 0-3-1.3457031-3-3v-16c0-1.6542969 1.3457031-3 3-3h16c1.6542969 0 3 1.3457031 3 3v16c0 1.6542969-1.3457031 3-3 3zm-16-20c-.5512695 0-1 .4487305-1 1v16c0 .5512695.4487305 1 1 1h16c.5512695 0 1-.4487305 1-1v-16c0-.5512695-.4487305-1-1-1z"/></g><g><path d="m51 53h-16c-1.1045685 0-2-.8954315-2-2v-16c0-1.1045685.8954315-2 2-2h16c1.1045685 0 2 .8954315 2 2v16c0 1.1045685-.8954315 2-2 2z" fill="#e3334f"/><path d="m51 54h-16c-1.6542969 0-3-1.3457031-3-3v-16c0-1.6542969 1.3457031-3 3-3h16c1.6542969 0 3 1.3457031 3 3v16c0 1.6542969-1.3457031 3-3 3zm-16-20c-.5512695 0-1 .4487305-1 1v16c0 .5512695.4487305 1 1 1h16c.5512695 0 1-.4487305 1-1v-16c0-.5512695-.4487305-1-1-1z"/></g></g></svg>